<?xml version="1.0" encoding="UTF-8"?>
<svg width="156px" height="24px" viewBox="0 0 156 24" version="1.1" xmlns="http://www.w3.org/2000/svg" xmlns:xlink="http://www.w3.org/1999/xlink">
    <!-- Generator: Sketch 44.1 (41455) - http://www.bohemiancoding.com/sketch -->
    <title>hc logo</title>
    <desc>Created with Sketch.</desc>
    <defs>
        <polygon id="path-1" points="0 22.9090909 155.867131 22.9090909 155.867131 0.137981191 0 0.137981191"></polygon>
    </defs>
    <g id="material-design" stroke="none" stroke-width="1" fill="none" fill-rule="evenodd">
        <g id="112_Project_Detail_Expanded" transform="translate(-22.000000, -20.000000)">
            <g id="hc-logo" transform="translate(22.000000, 20.000000)">
                <g transform="translate(0.000000, 0.125236)">
                    <polygon id="Fill-1" fill="#002F38" points="34.9357159 18.7638094 34.9357159 4.71316364 36.9424676 4.71316364 36.9424676 10.8230445 43.8137297 10.8230445 43.8137297 4.71316364 45.7785228 4.71316364 45.7785228 18.7638094 43.8137297 18.7638094 43.8137297 12.6539285 36.9424676 12.6539285 36.9424676 18.7638094"></polygon>
                    <path d="M50.5760338,11.5795185 C50.4189579,12.0877317 50.340151,12.7336627 50.340151,13.5178382 C50.340151,14.3022771 50.4189579,14.9482082 50.5760338,15.4564213 C50.7333786,15.9643712 50.9692614,16.3411862 51.28422,16.5868665 C51.5986407,16.8322834 51.9168269,16.9958069 52.2385097,17.0777003 C52.5601924,17.1593304 52.9499234,17.2004088 53.4079717,17.2004088 C53.86602,17.2004088 54.255751,17.1593304 54.5774338,17.0777003 C54.8991166,16.9958069 55.2173028,16.8322834 55.5319924,16.5868665 C55.8466821,16.3411862 56.0825648,15.9643712 56.2399097,15.4564213 C56.3972545,14.9482082 56.4760614,14.3022771 56.4760614,13.5178382 C56.4760614,12.7336627 56.3972545,12.0877317 56.2399097,11.5795185 C56.0825648,11.0715687 55.8466821,10.6950169 55.5319924,10.4493367 C55.2173028,10.2036564 54.8991166,10.0398696 54.5774338,9.9582395 C54.255751,9.87634608 53.86602,9.83553103 53.4079717,9.83553103 C52.9499234,9.83553103 52.5601924,9.87634608 52.2385097,9.9582395 C51.9168269,10.0398696 51.5986407,10.2036564 51.28422,10.4493367 C50.9692614,10.6950169 50.7333786,11.0715687 50.5760338,11.5795185 Z M48.7871441,16.2321705 C48.4845579,15.4864401 48.3333993,14.5816627 48.3333993,13.5178382 C48.3333993,12.4540138 48.4845579,11.5492364 48.7871441,10.803506 C49.0894614,10.0577755 49.5009786,9.49953103 50.0214269,9.12798245 C50.5421441,8.7569605 51.0749648,8.49416426 51.6201579,8.33933041 C52.1650821,8.18475987 52.7613786,8.10734295 53.4079717,8.10734295 C54.0548338,8.10734295 54.6505924,8.18475987 55.1960545,8.33933041 C55.7409786,8.49416426 56.2737993,8.7569605 56.7945166,9.12798245 C57.3149648,9.49953103 57.7264821,10.0577755 58.0287993,10.803506 C58.3313855,11.5492364 58.4825441,12.4540138 58.4825441,13.5178382 C58.4825441,14.5816627 58.3313855,15.4864401 58.0287993,16.2321705 C57.7264821,16.9779009 57.3149648,17.5364088 56.7945166,17.9074307 C56.2737993,18.278716 55.7409786,18.5417755 55.1960545,18.6963461 C54.6505924,18.8509166 54.0548338,18.9283335 53.4079717,18.9283335 C52.7613786,18.9283335 52.1650821,18.8509166 51.6201579,18.6963461 C51.0749648,18.5417755 50.5421441,18.278716 50.0214269,17.9074307 C49.5009786,17.5364088 49.0894614,16.9779009 48.7871441,16.2321705 Z" id="Fill-2" fill="#002F38"></path>
                    <path d="M60.6196903,14.3408013 L60.6196903,8.25145956 L62.5844834,8.25145956 L62.5844834,14.4916853 C62.5844834,15.4462307 62.7921248,16.1464063 63.2082145,16.5927386 C63.6240352,17.0388075 64.2757386,17.2621053 65.1635938,17.2621053 C66.051449,17.2621053 66.6996559,17.0406508 67.1084834,16.5977417 C67.51758,16.1550959 67.7219938,15.4530771 67.7219938,14.4916853 L67.7219938,8.25145956 L69.6867869,8.25145956 L69.6867869,14.3408013 C69.6867869,15.8014533 69.2911386,16.934795 68.4998421,17.7402997 C67.7085455,18.546331 66.5966421,18.9489517 65.1638628,18.9489517 C63.7308145,18.9489517 62.6151455,18.546331 61.8168559,17.7402997 C61.0188352,16.934795 60.6196903,15.8014533 60.6196903,14.3408013" id="Fill-4" fill="#002F38"></path>
                    <path d="M71.8650041,11.2202934 C71.8650041,10.3502746 72.1818455,9.61086395 72.8157972,9.00100815 C73.449749,8.391679 74.4180248,8.08701442 75.7208938,8.08701442 C76.6921283,8.08701442 77.6493766,8.3168953 78.5929076,8.77613041 L78.5929076,10.4405944 C77.6639007,10.0234909 76.7870731,9.81493918 75.9624248,9.81493918 C74.5404041,9.81493918 73.8297972,10.2628514 73.8297972,11.1586759 C73.8297972,11.4528075 74.01888,11.6974345 74.3970455,11.8920301 C74.775211,12.086889 75.2305697,12.2577856 75.7628524,12.4049831 C76.2951352,12.5521806 76.8282248,12.7296602 77.3618524,12.9382119 C77.895749,13.1467636 78.3529903,13.4972464 78.7330386,13.9899235 C79.1133559,14.4823373 79.3035145,15.0906132 79.3035145,15.8155411 C79.3035145,16.6634408 78.9786041,17.3941618 78.3290524,18.0077041 C77.6792317,18.6215097 76.6733007,18.9282809 75.3112593,18.9282809 C74.1622386,18.9282809 73.1291421,18.682074 72.2117007,18.1891335 L72.2117007,16.4309266 C73.1431283,16.9438796 74.1345352,17.2003561 75.1851145,17.2003561 L75.2270731,17.2003561 C75.9134731,17.2003561 76.43688,17.0789643 76.7978317,16.8361806 C77.1585145,16.5933969 77.3389903,16.2839925 77.3389903,15.9079674 C77.3389903,15.4771712 77.1512524,15.1301116 76.7768524,14.8667887 C76.4019145,14.6037292 75.9449421,14.3983373 75.4056662,14.2514031 C74.8661214,14.1042056 74.3287283,13.9401555 73.792949,13.7589893 C73.2571697,13.5778232 72.8015421,13.2771085 72.4271421,12.8563185 C72.0522041,12.4357918 71.8650041,11.8904502 71.8650041,11.2202934" id="Fill-6" fill="#002F38"></path>
                    <path d="M82.9406545,12.869906 L88.4563303,12.869906 C88.4283579,12.5202132 88.3670338,12.1857931 88.2723579,11.8669091 C88.177951,11.5480251 88.0343234,11.2241379 87.8417441,10.8949843 C87.6488959,10.5658307 87.3705166,10.3035611 87.0063372,10.1081755 C86.6424269,9.91278997 86.2077786,9.81483386 85.7037372,9.81483386 C84.8002821,9.81483386 84.1364752,10.0431348 83.7128545,10.4989467 C83.2889648,10.9552853 83.0315648,11.7452539 82.9406545,12.869906 M80.9653717,13.632489 C80.9653717,9.93543574 82.5447372,8.08690909 85.7037372,8.08690909 L85.7249855,8.08690909 C87.1601855,8.08690909 88.3075924,8.54588088 89.1655924,9.4643511 C90.0233234,10.3828213 90.4525924,11.6128025 90.4525924,13.154558 C90.4525924,13.6559248 90.4316131,14.1370157 90.3893855,14.5978307 L82.9721234,14.5978307 C83.2101579,16.4015925 84.2187786,17.30321 85.9979855,17.30321 C87.4477097,17.30321 88.6838752,17.0396238 89.7064821,16.5124514 L89.7064821,18.2640752 C88.599689,18.7206771 87.3495372,18.9489781 85.9560269,18.9489781 L85.893089,18.9489781 C85.2626338,18.9489781 84.6811303,18.8715611 84.1488476,18.7172539 C83.6165648,18.5624201 83.0982683,18.3064702 82.5944959,17.9496677 C82.0907234,17.5926019 81.6929234,17.044627 81.4019028,16.3060063 C81.1108821,15.5676489 80.9653717,14.6763009 80.9653717,13.632489" id="Fill-8" fill="#002F38"></path>
                    <path d="M92.8729593,14.7625392 C92.6082972,13.8917304 92.4756972,12.8803072 92.4756972,11.7282696 C92.4756972,10.576232 92.6082972,9.56480878 92.8729593,8.69373668 C93.1378903,7.8229279 93.4794766,7.12880878 93.897449,6.61085266 C94.3154214,6.09315987 94.8291455,5.67157994 95.4386214,5.34558621 C96.0480972,5.02011912 96.6433179,4.8023511 97.2248214,4.69254545 C97.8060559,4.58300313 98.4260214,4.52796865 99.084449,4.52796865 C100.576401,4.52796865 102.040111,4.80551097 103.476118,5.36112226 L103.476118,7.18173668 C102.124297,6.59215674 100.737242,6.29723511 99.3154903,6.29723511 C97.6202007,6.29723511 96.3910283,6.7240815 95.6277041,7.57777429 C94.864111,8.43146708 94.482449,9.81496552 94.482449,11.7282696 C94.482449,13.6207712 94.864111,14.9990031 95.6277041,15.8632288 C96.3910283,16.7271912 97.6202007,17.1593041 99.3154903,17.1593041 C100.737242,17.1593041 102.124297,16.8643824 103.476118,16.2745392 L103.476118,18.084884 C102.040111,18.6473417 100.576401,18.9283072 99.084449,18.9283072 C98.4260214,18.9283072 97.8060559,18.8732727 97.2248214,18.7637304 C96.6433179,18.6541881 96.0480972,18.4364201 95.4386214,18.1106897 C94.8291455,17.7852226 94.3154214,17.3633793 93.897449,16.8454232 C93.4794766,16.3277304 93.1378903,15.6336113 92.8729593,14.7625392" id="Fill-10" fill="#002F38"></path>
                    <path d="M107.36899,15.4208464 C107.36899,16.6073793 108.228604,17.2003824 109.948101,17.2003824 L109.97957,17.2003824 C111.601163,17.2003824 112.412094,16.6310784 112.412094,15.4924702 L112.412094,13.7948276 C111.894873,13.7131975 111.272756,13.6689592 110.546011,13.6618495 C110.259294,13.6618495 109.95859,13.6873918 109.64417,13.7384765 C109.32948,13.7898245 108.990583,13.8698746 108.627211,13.9788903 C108.26357,14.087906 107.963135,14.2688088 107.72537,14.5208088 C107.487604,14.7733354 107.36899,15.0732602 107.36899,15.4208464 M105.404197,15.4413856 C105.404197,14.4023135 105.852832,13.590489 106.750101,13.0059122 C107.64737,12.4215987 108.88488,12.1293103 110.462094,12.1293103 C111.132894,12.1293103 111.782983,12.1703887 112.412094,12.2528088 C112.370135,11.3680439 112.123763,10.7339624 111.672977,10.3497743 C111.221921,9.96584953 110.482804,9.77388715 109.455625,9.77388715 C108.523659,9.77388715 107.532252,9.94873354 106.481673,10.2984263 L106.481673,8.65265831 C107.497287,8.27557994 108.579335,8.08677743 109.728087,8.08677743 C111.22488,8.08677743 112.380894,8.46596238 113.195859,9.22354232 C114.011094,9.98138558 114.418846,11.0699624 114.418846,12.4892727 L114.418846,15.5238056 C114.418846,15.75 114.395714,15.9748777 114.350259,16.1973856 C114.304535,16.4204201 114.195604,16.706652 114.023197,17.0563448 C113.851328,17.4060376 113.617328,17.7112288 113.322273,17.9719185 C113.026949,18.2326082 112.584232,18.4569592 111.993583,18.6454984 C111.403204,18.8340376 110.721377,18.9283072 109.948101,18.9283072 C109.155728,18.9283072 108.461528,18.8303511 107.86577,18.6344389 C107.269473,18.4382633 106.82057,18.2096991 106.519328,17.9484828 C106.217818,17.6867398 105.977363,17.3775987 105.79877,17.0197429 C105.619908,16.6621505 105.509363,16.3664389 105.467404,16.1326082 C105.425177,15.8987774 105.404197,15.6681066 105.404197,15.4413856" id="Fill-12" fill="#002F38"></path>
                    <path d="M116.902554,18.7638094 L116.902554,9.14409781 C118.392892,8.42548966 119.918195,8.06631724 121.478464,8.06631724 C122.838354,8.06631724 123.903995,8.41258683 124.675657,9.10512602 C125.447319,9.79792853 125.833016,10.7580038 125.833016,11.9853517 L125.833016,18.7638094 L123.826264,18.7638094 L123.826264,11.835521 C123.826264,11.2169755 123.664885,10.7290382 123.341857,10.3717091 C123.01883,10.0141166 122.369547,9.8355837 121.394278,9.8355837 C120.516912,9.8355837 119.674512,9.96250533 118.867347,10.2168752 L118.867347,18.7638094 L116.902554,18.7638094 Z" id="Fill-14" fill="#002F38"></path>
                    <path d="M129.961045,15.4208464 C129.961045,16.6073793 130.820659,17.2003824 132.540155,17.2003824 L132.571624,17.2003824 C134.193217,17.2003824 135.004148,16.6310784 135.004148,15.4924702 L135.004148,13.7948276 C134.486928,13.7131975 133.86481,13.6689592 133.138066,13.6618495 C132.851348,13.6618495 132.550645,13.6873918 132.236224,13.7384765 C131.921534,13.7898245 131.582638,13.8698746 131.219266,13.9788903 C130.855624,14.087906 130.55519,14.2688088 130.317424,14.5208088 C130.079659,14.7733354 129.961045,15.0732602 129.961045,15.4208464 M127.996252,15.4413856 C127.996252,14.4023135 128.444886,13.590489 129.342155,13.0059122 C130.239424,12.4215987 131.476934,12.1293103 133.054148,12.1293103 C133.724948,12.1293103 134.375038,12.1703887 135.004148,12.2528088 C134.96219,11.3680439 134.715817,10.7339624 134.265031,10.3497743 C133.813976,9.96584953 133.074859,9.77388715 132.047679,9.77388715 C131.115714,9.77388715 130.124307,9.94873354 129.073728,10.2984263 L129.073728,8.65265831 C130.089341,8.27557994 131.17139,8.08677743 132.320141,8.08677743 C133.816934,8.08677743 134.972948,8.46596238 135.787914,9.22354232 C136.603148,9.98138558 137.0109,11.0699624 137.0109,12.4892727 L137.0109,15.5238056 C137.0109,15.75 136.987769,15.9748777 136.942314,16.1973856 C136.89659,16.4204201 136.787659,16.706652 136.615252,17.0563448 C136.443383,17.4060376 136.209383,17.7112288 135.914328,17.9719185 C135.619003,18.2326082 135.176286,18.4569592 134.585638,18.6454984 C133.995259,18.8340376 133.313431,18.9283072 132.540155,18.9283072 C131.747783,18.9283072 131.053583,18.8303511 130.457824,18.6344389 C129.861528,18.4382633 129.412624,18.2096991 129.111383,17.9484828 C128.809872,17.6867398 128.569417,17.3775987 128.390824,17.0197429 C128.211962,16.6621505 128.101417,16.3664389 128.059459,16.1326082 C128.017231,15.8987774 127.996252,15.6681066 127.996252,15.4413856" id="Fill-16" fill="#002F38"></path>
                    <path d="M139.484361,18.7638094 L139.484361,9.1359348 C141.277285,8.43654922 143.021257,8.08685643 144.716547,8.08685643 L144.716547,9.85612288 C143.648485,9.870079 142.559443,10.0172765 141.449154,10.2985053 L141.449154,18.7638094 L139.484361,18.7638094 Z" id="Fill-18" fill="#002F38"></path>
                    <path d="M145.917478,8.25145956 L148.029395,8.25145956 L150.918623,16.1240238 L153.755402,8.25145956 L155.86705,8.25145956 L151.454402,19.8850646 C150.690809,21.9010646 149.580519,22.9090646 148.123802,22.9090646 L148.113312,22.9090646 C147.636974,22.9090646 147.136161,22.8537668 146.610871,22.7434345 L146.610871,21.0062934 C147.037988,21.1158357 147.440899,21.1740301 147.819064,21.1811398 C148.708533,21.1811398 149.426671,20.3722119 149.97294,18.7554094 L145.917478,8.25145956 Z" id="Fill-20" fill="#002F38"></path>
                    <mask id="mask-2" fill="white">
                        <use xlink:href="#path-1"></use>
                    </mask>
                    <g id="Clip-23"></g>
                    <polygon id="Fill-22" fill="#002F38" mask="url(#mask-2)" points="10.7887448 20.4580815 12.5703724 20.4580815 12.5703724 18.7138307 10.7887448 18.7138307"></polygon>
                    <polygon id="Fill-24" fill="#002F38" mask="url(#mask-2)" points="13.1360069 20.4580815 14.9176345 20.4580815 14.9176345 18.7138307 13.1360069 18.7138307"></polygon>
                    <polygon id="Fill-25" fill="#002F38" mask="url(#mask-2)" points="10.7887448 22.7837492 12.5703724 22.7837492 12.5703724 21.0394984 10.7887448 21.0394984"></polygon>
                    <polygon id="Fill-26" fill="#002F38" mask="url(#mask-2)" points="13.1360069 22.7837492 14.9176345 22.7837492 14.9176345 21.0394984 13.1360069 21.0394984"></polygon>
                    <path d="M19.370251,2.11403511 C19.1418993,1.95419812 18.7992372,1.73801003 18.4511959,1.60634859 C18.4148855,1.50338934 18.3705062,1.40385329 18.3194028,1.30826708 C18.2430166,1.16501944 18.1504924,1.03151473 18.04452,0.909332915 C17.6362303,0.43772163 17.0267545,0.138060188 16.3457338,0.138060188 C16.2212028,0.138060188 16.0996303,0.148593103 15.9807476,0.167815674 C15.5310372,0.24049279 15.1265131,0.444568025 14.8104786,0.738963009 C14.7975683,0.751602508 14.78412,0.763978683 14.7709407,0.776618182 C14.7553407,0.791890909 14.7405476,0.807690282 14.7252166,0.823226332 C14.3962717,1.15527649 14.1380648,1.52919498 13.949251,1.92707586 C13.7711959,2.30257429 13.6547338,2.6996652 13.6006717,3.10307586 C13.5724303,3.12229843 13.5444579,3.141521 13.5164855,3.1610069 C12.73272,3.70634859 11.9844579,4.32278746 11.281651,5.01085016 C10.5000372,5.77606646 9.80879586,6.59605392 9.20738897,7.45843636 C8.65385793,8.25261818 8.1767131,9.08208527 7.77595448,9.93762132 L11.9330855,7.24356489 L11.9933338,7.2045931 C12.2978028,7.00420439 12.5718786,6.77616677 12.8142166,6.52548339 C13.1638717,6.16367774 13.4476303,5.75552727 13.6617269,5.31893793 C13.7324648,5.17437367 13.7951338,5.02691285 13.8508097,4.87681881 C13.8290234,5.41110094 13.6966924,5.93722006 13.4594648,6.42068088 C13.2838303,6.77932665 13.0509062,7.11453668 12.763651,7.41156489 C12.5646166,7.61722006 12.3394924,7.80470596 12.0896234,7.96928276 L12.0401338,8.00114483 L7.29208552,11.0780727 L3.95906483,13.237847 C4.13819586,13.6178219 4.34207172,13.9841041 4.56854069,14.3353768 C5.08414759,13.7787122 5.69227862,13.2868251 6.38809241,12.8844677 C6.51558207,12.8107373 6.64441655,12.7412201 6.77405793,12.6753893 C7.91823724,12.0955524 9.14875448,11.8188 10.3647476,11.8198533 L11.7526097,11.8198533 C15.1620166,11.8198533 17.9261752,9.11394734 17.9261752,5.77580313 C17.9261752,5.18069342 17.8360717,4.60664953 17.6725407,4.0631511 C17.9552234,3.85670596 18.1897614,3.58969655 18.3465683,3.27686897 C18.4000924,3.16969655 18.4447407,3.05778433 18.4802441,2.94192226 C18.9549683,2.79156489 19.4910166,2.42844263 19.6176993,2.33970282 C19.635989,2.32732665 19.6456717,2.31995361 19.6456717,2.31995361 C19.6456717,2.31995361 19.5391614,2.23226708 19.370251,2.11403511" id="Fill-27" fill="#FDB813" mask="url(#mask-2)"></path>
                    <path d="M21.7616503,17.5397793 L21.7616503,13.7897981 L19.3858779,13.7897981 L19.3858779,15.9893342 L12.8532434,11.72561 L-8.06896552e-05,20.1145505 C0.425422759,20.5832652 0.877553793,21.0282809 1.35362276,21.4477542 L12.8532434,14.7488201 L24.3528641,21.4477542 C24.8289331,21.0282809 25.2807952,20.5832652 25.7065676,20.1145505 L21.7616503,17.5397793 Z" id="Fill-28" fill="#002F38" mask="url(#mask-2)"></path>
                </g>
            </g>
        </g>
    </g>
</svg>